<mxfile host="app.diagrams.net" agent="Mozilla/5.0 (Windows NT 10.0; Win64; x64) AppleWebKit/537.36 (KHTML, like Gecko) Chrome/122.0.0.0 Safari/537.36" version="24.7.17">
  <diagram name="Página-1" id="KF2_ladcj-vhl3kibzI2">
    <mxGraphModel dx="1600" dy="609" grid="1" gridSize="10" guides="1" tooltips="1" connect="1" arrows="1" fold="1" page="1" pageScale="1" pageWidth="827" pageHeight="1169" math="0" shadow="0">
      <root>
        <mxCell id="0" />
        <mxCell id="1" parent="0" />
        <mxCell id="QnlgLzVFs53YzpZ4HouB-1" value="" style="shape=umlLifeline;perimeter=lifelinePerimeter;whiteSpace=wrap;html=1;container=1;dropTarget=0;collapsible=0;recursiveResize=0;outlineConnect=0;portConstraint=eastwest;newEdgeStyle={&quot;curved&quot;:0,&quot;rounded&quot;:0};participant=umlActor;" parent="1" vertex="1">
          <mxGeometry x="130" y="30" width="20" height="470" as="geometry" />
        </mxCell>
        <mxCell id="QnlgLzVFs53YzpZ4HouB-7" value="" style="html=1;points=[[0,0,0,0,5],[0,1,0,0,-5],[1,0,0,0,5],[1,1,0,0,-5]];perimeter=orthogonalPerimeter;outlineConnect=0;targetShapes=umlLifeline;portConstraint=eastwest;newEdgeStyle={&quot;curved&quot;:0,&quot;rounded&quot;:0};" parent="QnlgLzVFs53YzpZ4HouB-1" vertex="1">
          <mxGeometry x="5" y="60" width="10" height="390" as="geometry" />
        </mxCell>
        <mxCell id="QnlgLzVFs53YzpZ4HouB-3" value="Cliente" style="text;html=1;align=center;verticalAlign=middle;whiteSpace=wrap;rounded=0;" parent="1" vertex="1">
          <mxGeometry x="110" y="60" width="60" height="30" as="geometry" />
        </mxCell>
        <mxCell id="QnlgLzVFs53YzpZ4HouB-5" value="" style="shape=umlLifeline;perimeter=lifelinePerimeter;whiteSpace=wrap;html=1;container=1;dropTarget=0;collapsible=0;recursiveResize=0;outlineConnect=0;portConstraint=eastwest;newEdgeStyle={&quot;curved&quot;:0,&quot;rounded&quot;:0};participant=umlBoundary;" parent="1" vertex="1">
          <mxGeometry x="338" y="30" width="50" height="470" as="geometry" />
        </mxCell>
        <mxCell id="QnlgLzVFs53YzpZ4HouB-9" value="" style="html=1;points=[[0,0,0,0,5],[0,1,0,0,-5],[1,0,0,0,5],[1,1,0,0,-5]];perimeter=orthogonalPerimeter;outlineConnect=0;targetShapes=umlLifeline;portConstraint=eastwest;newEdgeStyle={&quot;curved&quot;:0,&quot;rounded&quot;:0};" parent="QnlgLzVFs53YzpZ4HouB-5" vertex="1">
          <mxGeometry x="20" y="60" width="10" height="340" as="geometry" />
        </mxCell>
        <mxCell id="QnlgLzVFs53YzpZ4HouB-6" value="" style="shape=umlLifeline;perimeter=lifelinePerimeter;whiteSpace=wrap;html=1;container=1;dropTarget=0;collapsible=0;recursiveResize=0;outlineConnect=0;portConstraint=eastwest;newEdgeStyle={&quot;curved&quot;:0,&quot;rounded&quot;:0};participant=umlControl;" parent="1" vertex="1">
          <mxGeometry x="578" y="30" width="40" height="470" as="geometry" />
        </mxCell>
        <mxCell id="QnlgLzVFs53YzpZ4HouB-10" value="" style="html=1;points=[[0,0,0,0,5],[0,1,0,0,-5],[1,0,0,0,5],[1,1,0,0,-5]];perimeter=orthogonalPerimeter;outlineConnect=0;targetShapes=umlLifeline;portConstraint=eastwest;newEdgeStyle={&quot;curved&quot;:0,&quot;rounded&quot;:0};" parent="QnlgLzVFs53YzpZ4HouB-6" vertex="1">
          <mxGeometry x="15" y="80" width="10" height="370" as="geometry" />
        </mxCell>
        <mxCell id="xJTMraUe3-y1tQ5UknpN-4" value="" style="html=1;points=[[0,0,0,0,5],[0,1,0,0,-5],[1,0,0,0,5],[1,1,0,0,-5]];perimeter=orthogonalPerimeter;outlineConnect=0;targetShapes=umlLifeline;portConstraint=eastwest;newEdgeStyle={&quot;curved&quot;:0,&quot;rounded&quot;:0};" vertex="1" parent="QnlgLzVFs53YzpZ4HouB-6">
          <mxGeometry x="20" y="362" width="10" height="40" as="geometry" />
        </mxCell>
        <mxCell id="xJTMraUe3-y1tQ5UknpN-5" value="Verifica quantidade ações" style="html=1;align=left;spacingLeft=2;endArrow=block;rounded=0;edgeStyle=orthogonalEdgeStyle;curved=0;rounded=0;" edge="1" target="xJTMraUe3-y1tQ5UknpN-4" parent="QnlgLzVFs53YzpZ4HouB-6">
          <mxGeometry relative="1" as="geometry">
            <mxPoint x="25" y="342" as="sourcePoint" />
            <Array as="points">
              <mxPoint x="55" y="372" />
            </Array>
          </mxGeometry>
        </mxCell>
        <mxCell id="QnlgLzVFs53YzpZ4HouB-8" value="Solicita página de ações compradas" style="html=1;verticalAlign=bottom;endArrow=block;curved=0;rounded=0;" parent="1" target="QnlgLzVFs53YzpZ4HouB-5" edge="1">
          <mxGeometry x="0.0045" width="80" relative="1" as="geometry">
            <mxPoint x="140" y="90" as="sourcePoint" />
            <mxPoint x="220" y="90" as="targetPoint" />
            <mxPoint as="offset" />
          </mxGeometry>
        </mxCell>
        <mxCell id="QnlgLzVFs53YzpZ4HouB-11" value="Solicita carteira" style="html=1;verticalAlign=bottom;endArrow=block;curved=0;rounded=0;" parent="1" edge="1">
          <mxGeometry width="80" relative="1" as="geometry">
            <mxPoint x="368" y="110" as="sourcePoint" />
            <mxPoint x="593" y="110" as="targetPoint" />
          </mxGeometry>
        </mxCell>
        <mxCell id="QnlgLzVFs53YzpZ4HouB-12" value="Retorna página da carteira" style="html=1;verticalAlign=bottom;endArrow=open;dashed=1;endSize=8;curved=0;rounded=0;" parent="1" edge="1">
          <mxGeometry relative="1" as="geometry">
            <mxPoint x="593" y="139" as="sourcePoint" />
            <mxPoint x="368" y="139" as="targetPoint" />
          </mxGeometry>
        </mxCell>
        <mxCell id="QnlgLzVFs53YzpZ4HouB-13" value="Seleciona ação com interesse de venda" style="html=1;verticalAlign=bottom;endArrow=block;curved=0;rounded=0;" parent="1" target="QnlgLzVFs53YzpZ4HouB-9" edge="1">
          <mxGeometry x="-0.0007" width="80" relative="1" as="geometry">
            <mxPoint x="145" y="170" as="sourcePoint" />
            <mxPoint x="250" y="200" as="targetPoint" />
            <mxPoint as="offset" />
          </mxGeometry>
        </mxCell>
        <mxCell id="QnlgLzVFs53YzpZ4HouB-14" value="Envia ação selecionada" style="html=1;verticalAlign=bottom;endArrow=block;curved=0;rounded=0;" parent="1" edge="1">
          <mxGeometry width="80" relative="1" as="geometry">
            <mxPoint x="368" y="200" as="sourcePoint" />
            <mxPoint x="593" y="200" as="targetPoint" />
          </mxGeometry>
        </mxCell>
        <mxCell id="QnlgLzVFs53YzpZ4HouB-17" value="Ação" style="shape=umlLifeline;perimeter=lifelinePerimeter;whiteSpace=wrap;html=1;container=1;dropTarget=0;collapsible=0;recursiveResize=0;outlineConnect=0;portConstraint=eastwest;newEdgeStyle={&quot;curved&quot;:0,&quot;rounded&quot;:0};" parent="1" vertex="1">
          <mxGeometry x="728" y="30" width="100" height="470" as="geometry" />
        </mxCell>
        <mxCell id="QnlgLzVFs53YzpZ4HouB-18" value="Apresenta gráfico com oscilações do valor" style="html=1;verticalAlign=bottom;endArrow=open;dashed=1;endSize=8;curved=0;rounded=0;" parent="1" target="QnlgLzVFs53YzpZ4HouB-9" edge="1">
          <mxGeometry x="0.0032" relative="1" as="geometry">
            <mxPoint x="593" y="236" as="sourcePoint" />
            <mxPoint x="358" y="236" as="targetPoint" />
            <mxPoint as="offset" />
          </mxGeometry>
        </mxCell>
        <mxCell id="QnlgLzVFs53YzpZ4HouB-19" value="Pressiona o botão &#39;vender&#39;" style="html=1;verticalAlign=bottom;endArrow=block;curved=0;rounded=0;" parent="1" target="QnlgLzVFs53YzpZ4HouB-9" edge="1">
          <mxGeometry width="80" relative="1" as="geometry">
            <mxPoint x="145" y="265" as="sourcePoint" />
            <mxPoint x="320" y="265" as="targetPoint" />
          </mxGeometry>
        </mxCell>
        <mxCell id="QnlgLzVFs53YzpZ4HouB-20" value="Vender ação" style="html=1;verticalAlign=bottom;endArrow=block;curved=0;rounded=0;" parent="1" source="QnlgLzVFs53YzpZ4HouB-9" edge="1">
          <mxGeometry width="80" relative="1" as="geometry">
            <mxPoint x="358" y="288" as="sourcePoint" />
            <mxPoint x="593" y="288" as="targetPoint" />
          </mxGeometry>
        </mxCell>
        <mxCell id="QnlgLzVFs53YzpZ4HouB-21" value="Solicita a quantidade que será vendida" style="html=1;verticalAlign=bottom;endArrow=open;dashed=1;endSize=8;curved=0;rounded=0;" parent="1" target="QnlgLzVFs53YzpZ4HouB-9" edge="1">
          <mxGeometry relative="1" as="geometry">
            <mxPoint x="593" y="322" as="sourcePoint" />
            <mxPoint x="358" y="322" as="targetPoint" />
          </mxGeometry>
        </mxCell>
        <mxCell id="QnlgLzVFs53YzpZ4HouB-22" value="Informa a quantidade que será vendida" style="html=1;verticalAlign=bottom;endArrow=block;curved=0;rounded=0;" parent="1" target="QnlgLzVFs53YzpZ4HouB-9" edge="1">
          <mxGeometry width="80" relative="1" as="geometry">
            <mxPoint x="145" y="349" as="sourcePoint" />
            <mxPoint x="330" y="349" as="targetPoint" />
          </mxGeometry>
        </mxCell>
        <mxCell id="QnlgLzVFs53YzpZ4HouB-24" value="Verifica quantidade de ações" style="html=1;verticalAlign=bottom;endArrow=block;curved=0;rounded=0;" parent="1" edge="1">
          <mxGeometry width="80" relative="1" as="geometry">
            <mxPoint x="368" y="369" as="sourcePoint" />
            <mxPoint x="593" y="369" as="targetPoint" />
          </mxGeometry>
        </mxCell>
        <mxCell id="QnlgLzVFs53YzpZ4HouB-31" value="vender()" style="html=1;verticalAlign=bottom;endArrow=block;curved=0;rounded=0;" parent="1" edge="1">
          <mxGeometry x="-0.0012" width="80" relative="1" as="geometry">
            <mxPoint x="603" y="461" as="sourcePoint" />
            <mxPoint x="777.5" y="461.0000000000001" as="targetPoint" />
            <mxPoint as="offset" />
          </mxGeometry>
        </mxCell>
        <mxCell id="QnlgLzVFs53YzpZ4HouB-32" value="Ordem" style="shape=umlLifeline;perimeter=lifelinePerimeter;whiteSpace=wrap;html=1;container=1;dropTarget=0;collapsible=0;recursiveResize=0;outlineConnect=0;portConstraint=eastwest;newEdgeStyle={&quot;curved&quot;:0,&quot;rounded&quot;:0};" parent="1" vertex="1">
          <mxGeometry x="898" y="30" width="100" height="470" as="geometry" />
        </mxCell>
        <mxCell id="QnlgLzVFs53YzpZ4HouB-33" value="gerar()" style="html=1;verticalAlign=bottom;endArrow=block;curved=0;rounded=0;" parent="1" edge="1">
          <mxGeometry width="80" relative="1" as="geometry">
            <mxPoint x="603" y="480" as="sourcePoint" />
            <mxPoint x="947.5" y="480" as="targetPoint" />
          </mxGeometry>
        </mxCell>
        <mxCell id="xJTMraUe3-y1tQ5UknpN-1" value="açõesCompradas()" style="html=1;verticalAlign=bottom;endArrow=block;curved=0;rounded=0;" edge="1" parent="1">
          <mxGeometry width="80" relative="1" as="geometry">
            <mxPoint x="603" y="127" as="sourcePoint" />
            <mxPoint x="1109.5" y="127" as="targetPoint" />
          </mxGeometry>
        </mxCell>
        <mxCell id="xJTMraUe3-y1tQ5UknpN-2" value="Carteira" style="shape=umlLifeline;perimeter=lifelinePerimeter;whiteSpace=wrap;html=1;container=1;dropTarget=0;collapsible=0;recursiveResize=0;outlineConnect=0;portConstraint=eastwest;newEdgeStyle={&quot;curved&quot;:0,&quot;rounded&quot;:0};" vertex="1" parent="1">
          <mxGeometry x="1060" y="30" width="100" height="470" as="geometry" />
        </mxCell>
        <mxCell id="xJTMraUe3-y1tQ5UknpN-3" value="buscar()" style="html=1;verticalAlign=bottom;endArrow=block;curved=0;rounded=0;" edge="1" parent="1">
          <mxGeometry width="80" relative="1" as="geometry">
            <mxPoint x="603" y="219" as="sourcePoint" />
            <mxPoint x="777.5" y="219" as="targetPoint" />
          </mxGeometry>
        </mxCell>
        <mxCell id="xJTMraUe3-y1tQ5UknpN-6" value="açõesCompradas()" style="html=1;verticalAlign=bottom;endArrow=block;curved=0;rounded=0;" edge="1" parent="1">
          <mxGeometry width="80" relative="1" as="geometry">
            <mxPoint x="608" y="432" as="sourcePoint" />
            <mxPoint x="1109.5" y="432" as="targetPoint" />
          </mxGeometry>
        </mxCell>
        <mxCell id="xJTMraUe3-y1tQ5UknpN-7" value="Retorna que não possui a quantidade &lt;br&gt;informada" style="html=1;verticalAlign=bottom;endArrow=open;dashed=1;endSize=8;curved=0;rounded=0;" edge="1" parent="1">
          <mxGeometry relative="1" as="geometry">
            <mxPoint x="598" y="431" as="sourcePoint" />
            <mxPoint x="368" y="431" as="targetPoint" />
          </mxGeometry>
        </mxCell>
      </root>
    </mxGraphModel>
  </diagram>
</mxfile>
